<?xml version="1.0" encoding="UTF-8"?>
<svg xmlns="http://www.w3.org/2000/svg" xmlns:xlink="http://www.w3.org/1999/xlink" width="24px" height="24px" viewBox="0 0 24 23" version="1.1">
<g id="surface1">
<path style=" stroke:none;fill-rule:evenodd;fill:rgb(93.72549%,27.45098%,27.45098%);fill-opacity:1;" d="M 11.542969 -0.00390625 C 11.84375 -0.00390625 12.140625 -0.00390625 12.441406 -0.00390625 C 15.40625 0.136719 17.984375 1.160156 20.164062 3.066406 C 22.148438 4.859375 23.375 7.054688 23.839844 9.648438 C 23.933594 10.214844 23.984375 10.78125 23.996094 11.351562 C 23.996094 11.449219 23.996094 11.542969 23.996094 11.640625 C 23.9375 14.234375 23.085938 16.554688 21.441406 18.59375 C 19.84375 20.519531 17.808594 21.835938 15.34375 22.546875 C 14.394531 22.808594 13.425781 22.957031 12.441406 22.996094 C 12.140625 22.996094 11.84375 22.996094 11.542969 22.996094 C 8.617188 22.859375 6.066406 21.859375 3.898438 19.996094 C 1.929688 18.246094 0.691406 16.101562 0.183594 13.558594 C 0.0820312 13.007812 0.0195312 12.457031 -0.00390625 11.902344 C -0.00390625 11.632812 -0.00390625 11.359375 -0.00390625 11.089844 C 0.125 8.347656 1.125 5.945312 2.992188 3.882812 C 4.710938 2.039062 6.835938 0.835938 9.359375 0.269531 C 10.082031 0.117188 10.808594 0.0273438 11.542969 -0.00390625 Z M 11.542969 -0.00390625 "/>
<path style=" stroke:none;fill-rule:evenodd;fill:rgb(18.431373%,19.215686%,21.176471%);fill-opacity:1;" d="M 3.195312 9.425781 C 9.089844 9.421875 14.984375 9.425781 20.878906 9.4375 C 21.628906 9.542969 22.1875 9.910156 22.550781 10.546875 C 22.800781 11.027344 22.855469 11.53125 22.710938 12.054688 C 22.46875 12.796875 21.957031 13.28125 21.179688 13.5 C 21.082031 13.523438 20.980469 13.539062 20.878906 13.554688 C 17.910156 13.5625 14.945312 13.566406 11.980469 13.566406 C 9.050781 13.566406 6.125 13.5625 3.195312 13.5625 C 2.421875 13.484375 1.84375 13.125 1.457031 12.484375 C 1.144531 11.902344 1.113281 11.308594 1.359375 10.699219 C 1.691406 10.003906 2.25 9.585938 3.035156 9.445312 C 3.089844 9.441406 3.144531 9.433594 3.195312 9.425781 Z M 3.195312 9.425781 "/>
</g>
</svg>
